<mxfile host="app.diagrams.net" modified="2023-12-23T18:15:12.294Z" agent="Mozilla/5.0 (Windows NT 10.0; Win64; x64) AppleWebKit/537.36 (KHTML, like Gecko) Chrome/120.0.0.0 Safari/537.36" etag="0Adh36IQ3b4F9_jtnwoh" version="22.1.11" type="github">
  <diagram id="C5RBs43oDa-KdzZeNtuy" name="Page-1">
    <mxGraphModel dx="1687" dy="904" grid="1" gridSize="10" guides="1" tooltips="1" connect="1" arrows="1" fold="1" page="1" pageScale="1" pageWidth="1169" pageHeight="1654" math="0" shadow="0">
      <root>
        <mxCell id="WIyWlLk6GJQsqaUBKTNV-0" />
        <mxCell id="WIyWlLk6GJQsqaUBKTNV-1" parent="WIyWlLk6GJQsqaUBKTNV-0" />
        <mxCell id="xAhn1PzQ28b_dTYz_ApR-18" value="part.py" style="shape=umlFrame;whiteSpace=wrap;html=1;pointerEvents=0;" vertex="1" parent="WIyWlLk6GJQsqaUBKTNV-1">
          <mxGeometry x="590" y="80" width="330" height="380" as="geometry" />
        </mxCell>
        <mxCell id="xAhn1PzQ28b_dTYz_ApR-19" value="Base class" style="swimlane;fontStyle=1;align=center;verticalAlign=top;childLayout=stackLayout;horizontal=1;startSize=26;horizontalStack=0;resizeParent=1;resizeParentMax=0;resizeLast=0;collapsible=1;marginBottom=0;whiteSpace=wrap;html=1;" vertex="1" parent="WIyWlLk6GJQsqaUBKTNV-1">
          <mxGeometry x="680" y="100" width="160" height="150" as="geometry" />
        </mxCell>
        <mxCell id="xAhn1PzQ28b_dTYz_ApR-21" value="" style="line;strokeWidth=1;fillColor=none;align=left;verticalAlign=middle;spacingTop=-1;spacingLeft=3;spacingRight=3;rotatable=0;labelPosition=right;points=[];portConstraint=eastwest;strokeColor=inherit;" vertex="1" parent="xAhn1PzQ28b_dTYz_ApR-19">
          <mxGeometry y="26" width="160" height="8" as="geometry" />
        </mxCell>
        <mxCell id="xAhn1PzQ28b_dTYz_ApR-22" value="+ __init__&lt;br&gt;+ update()&lt;br&gt;+ run()&lt;br&gt;+ run_threaded()&lt;br&gt;+ shutdown()&lt;br&gt;+ other methods if needed" style="text;strokeColor=none;fillColor=none;align=left;verticalAlign=top;spacingLeft=4;spacingRight=4;overflow=hidden;rotatable=0;points=[[0,0.5],[1,0.5]];portConstraint=eastwest;whiteSpace=wrap;html=1;" vertex="1" parent="xAhn1PzQ28b_dTYz_ApR-19">
          <mxGeometry y="34" width="160" height="116" as="geometry" />
        </mxCell>
        <mxCell id="xAhn1PzQ28b_dTYz_ApR-23" value="Subclass" style="swimlane;fontStyle=1;align=center;verticalAlign=top;childLayout=stackLayout;horizontal=1;startSize=26;horizontalStack=0;resizeParent=1;resizeParentMax=0;resizeLast=0;collapsible=1;marginBottom=0;whiteSpace=wrap;html=1;" vertex="1" parent="WIyWlLk6GJQsqaUBKTNV-1">
          <mxGeometry x="680" y="300" width="160" height="150" as="geometry" />
        </mxCell>
        <mxCell id="xAhn1PzQ28b_dTYz_ApR-24" value="" style="line;strokeWidth=1;fillColor=none;align=left;verticalAlign=middle;spacingTop=-1;spacingLeft=3;spacingRight=3;rotatable=0;labelPosition=right;points=[];portConstraint=eastwest;strokeColor=inherit;" vertex="1" parent="xAhn1PzQ28b_dTYz_ApR-23">
          <mxGeometry y="26" width="160" height="8" as="geometry" />
        </mxCell>
        <mxCell id="xAhn1PzQ28b_dTYz_ApR-25" value="+ __init__&lt;br&gt;+ update()&lt;br&gt;+ run()&lt;br&gt;+ run_threaded()&lt;br&gt;+ shutdown()&lt;br&gt;+ other methods if needed" style="text;strokeColor=none;fillColor=none;align=left;verticalAlign=top;spacingLeft=4;spacingRight=4;overflow=hidden;rotatable=0;points=[[0,0.5],[1,0.5]];portConstraint=eastwest;whiteSpace=wrap;html=1;" vertex="1" parent="xAhn1PzQ28b_dTYz_ApR-23">
          <mxGeometry y="34" width="160" height="116" as="geometry" />
        </mxCell>
        <mxCell id="xAhn1PzQ28b_dTYz_ApR-26" value="" style="html=1;verticalAlign=bottom;endArrow=block;curved=0;rounded=0;exitX=0.5;exitY=0;exitDx=0;exitDy=0;entryX=0.5;entryY=1;entryDx=0;entryDy=0;" edge="1" parent="WIyWlLk6GJQsqaUBKTNV-1" source="xAhn1PzQ28b_dTYz_ApR-23" target="xAhn1PzQ28b_dTYz_ApR-19">
          <mxGeometry width="80" relative="1" as="geometry">
            <mxPoint x="790" y="270" as="sourcePoint" />
            <mxPoint x="870" y="270" as="targetPoint" />
          </mxGeometry>
        </mxCell>
        <mxCell id="xAhn1PzQ28b_dTYz_ApR-27" value="vehicle.py" style="shape=umlFrame;whiteSpace=wrap;html=1;pointerEvents=0;" vertex="1" parent="WIyWlLk6GJQsqaUBKTNV-1">
          <mxGeometry x="590" y="500" width="330" height="240" as="geometry" />
        </mxCell>
        <mxCell id="xAhn1PzQ28b_dTYz_ApR-28" value="Vehicle" style="swimlane;fontStyle=1;align=center;verticalAlign=top;childLayout=stackLayout;horizontal=1;startSize=26;horizontalStack=0;resizeParent=1;resizeParentMax=0;resizeLast=0;collapsible=1;marginBottom=0;whiteSpace=wrap;html=1;" vertex="1" parent="WIyWlLk6GJQsqaUBKTNV-1">
          <mxGeometry x="605" y="550" width="300" height="150" as="geometry" />
        </mxCell>
        <mxCell id="xAhn1PzQ28b_dTYz_ApR-29" value="" style="line;strokeWidth=1;fillColor=none;align=left;verticalAlign=middle;spacingTop=-1;spacingLeft=3;spacingRight=3;rotatable=0;labelPosition=right;points=[];portConstraint=eastwest;strokeColor=inherit;" vertex="1" parent="xAhn1PzQ28b_dTYz_ApR-28">
          <mxGeometry y="26" width="300" height="8" as="geometry" />
        </mxCell>
        <mxCell id="xAhn1PzQ28b_dTYz_ApR-30" value="+ __init__()&lt;br&gt;+ start (&amp;nbsp;&amp;nbsp;rate_hz, max_loop_count,&amp;nbsp; verbose)&lt;br&gt;+ add(part, input, outputs, threaded, run condition)&lt;br&gt;+ update_parts&lt;br&gt;+ stop&lt;br&gt;+ remove" style="text;strokeColor=none;fillColor=none;align=left;verticalAlign=top;spacingLeft=4;spacingRight=4;overflow=hidden;rotatable=0;points=[[0,0.5],[1,0.5]];portConstraint=eastwest;whiteSpace=wrap;html=1;" vertex="1" parent="xAhn1PzQ28b_dTYz_ApR-28">
          <mxGeometry y="34" width="300" height="116" as="geometry" />
        </mxCell>
        <mxCell id="xAhn1PzQ28b_dTYz_ApR-31" value="manage.py" style="shape=umlFrame;whiteSpace=wrap;html=1;pointerEvents=0;" vertex="1" parent="WIyWlLk6GJQsqaUBKTNV-1">
          <mxGeometry x="80" y="260" width="300" height="200" as="geometry" />
        </mxCell>
      </root>
    </mxGraphModel>
  </diagram>
</mxfile>
